<?xml version="1.0" standalone="no"?>
<!DOCTYPE svg PUBLIC "-//W3C//DTD SVG 20010904//EN"
 "http://www.w3.org/TR/2001/REC-SVG-20010904/DTD/svg10.dtd">
<svg version="1.0" xmlns="http://www.w3.org/2000/svg"
 width="460.000000pt" height="460.000000pt" viewBox="0 0 460.000000 460.000000"
 preserveAspectRatio="xMidYMid meet">
<metadata>
Created by potrace 1.14, written by Peter Selinger 2001-2017
</metadata>
<g transform="translate(0.000000,460.000000) scale(0.100000,-0.100000)"
fill="#000000" stroke="none">
<path d="M2590 4573 c-8 -3 -33 -14 -55 -23 -72 -32 -148 -50 -260 -59 -129
-12 -294 -36 -382 -56 -67 -16 -212 -84 -246 -116 -11 -10 -25 -19 -30 -19
-14 0 -136 -121 -181 -180 -61 -80 -110 -205 -138 -345 -19 -102 -23 -152 -23
-335 0 -184 3 -221 18 -254 9 -21 17 -40 17 -42 0 -2 -18 -4 -39 -4 -42 0 -71
-20 -71 -49 0 -28 21 -41 66 -41 l41 0 5 -327 5 -328 38 -110 c20 -60 52 -136
71 -168 19 -32 34 -62 34 -65 0 -19 127 -161 192 -215 44 -37 154 -107 168
-107 6 0 36 -11 67 -25 30 -14 74 -30 96 -35 23 -5 74 -17 112 -26 105 -25
274 -29 365 -9 41 9 99 20 129 25 72 12 222 74 286 117 71 47 122 92 168 146
62 72 85 104 107 147 12 25 28 52 35 60 7 8 32 71 55 140 l43 125 5 328 5 327
41 0 c45 0 66 13 66 41 0 29 -29 49 -72 49 l-40 0 6 93 c16 226 18 363 6 474
-15 154 -26 205 -61 282 -16 35 -29 68 -29 73 0 5 -20 36 -45 68 -43 56 -106
114 -224 205 -54 42 -59 55 -36 95 8 14 14 38 15 54 0 32 -5 32 -113 2 -32 -9
-60 -16 -62 -16 -2 0 2 13 8 30 19 51 -2 58 -66 21 -70 -40 -82 -40 -62 0 25
47 10 68 -35 52z m218 -545 c49 -57 129 -131 171 -160 19 -13 58 -50 86 -84
81 -95 127 -232 145 -434 8 -84 17 -128 34 -162 l23 -48 -32 0 c-26 0 -39 8
-61 37 -47 61 -85 92 -164 130 l-75 37 -160 -2 c-173 -2 -213 -9 -229 -35 -9
-14 -6 -21 13 -36 l24 -18 -24 -17 c-13 -9 -40 -38 -59 -65 l-34 -48 -48 38
c-81 63 -163 65 -240 3 l-43 -34 -23 27 c-13 16 -38 44 -57 64 l-35 37 23 15
c18 12 20 19 11 33 -16 28 -56 34 -229 36 l-160 2 -76 -36 c-58 -28 -89 -51
-136 -102 -50 -54 -66 -66 -92 -66 -33 0 -38 9 -20 42 6 11 21 84 34 161 20
124 43 207 96 337 19 45 81 132 123 171 47 44 43 40 93 98 84 98 49 89 340 83
251 -5 610 10 683 27 56 14 60 13 98 -31z m-902 -789 c114 -57 187 -163 201
-294 6 -59 -23 -158 -65 -219 -34 -50 -114 -108 -172 -127 -62 -19 -164 -17
-233 5 -81 26 -164 108 -198 196 -44 118 -22 260 54 347 29 33 31 34 39 14 12
-34 49 -26 93 19 21 22 43 40 48 40 4 0 27 9 50 19 85 38 105 38 183 0z m988
-8 c34 -16 74 -43 90 -60 35 -36 73 -41 84 -10 8 20 10 19 39 -14 76 -87 98
-229 54 -347 -34 -88 -117 -170 -198 -196 -69 -22 -171 -24 -233 -5 -58 19
-138 77 -172 127 -42 61 -71 160 -65 219 13 130 86 236 200 294 73 37 107 36
201 -8z m-547 -110 c58 -27 70 -56 76 -186 6 -124 23 -181 78 -252 49 -63 50
-65 111 -106 131 -90 330 -88 463 4 33 24 62 47 64 52 2 5 16 24 32 42 16 18
36 45 44 61 15 27 15 23 10 -66 -8 -121 -21 -179 -58 -259 -36 -77 -84 -123
-181 -173 -94 -50 -138 -51 -166 -5 -11 17 -20 40 -20 50 0 32 -49 114 -86
145 -21 17 -74 43 -120 58 -74 24 -94 26 -165 21 -47 -4 -92 -13 -105 -22 -22
-14 -26 -14 -51 2 -20 13 -48 17 -122 18 -110 0 -205 -28 -266 -78 -37 -30
-85 -112 -85 -144 0 -10 -9 -33 -20 -50 -28 -46 -73 -45 -166 5 -100 52 -145
96 -181 172 -37 80 -50 138 -58 260 -5 89 -5 93 10 66 8 -16 28 -43 44 -61 16
-18 30 -37 32 -42 2 -5 31 -28 64 -52 136 -94 334 -94 470 0 33 24 61 46 63
51 2 4 20 28 40 52 57 69 76 133 78 258 1 119 11 144 67 178 39 24 51 24 104
1z m134 -770 c150 -7 165 -15 211 -104 41 -80 42 -141 5 -212 -46 -87 -152
-175 -211 -175 -9 0 -31 14 -50 30 -19 17 -55 38 -80 46 -61 21 -131 5 -187
-42 -23 -19 -47 -34 -55 -34 -59 0 -166 89 -211 175 -37 71 -36 132 5 212 46
89 60 96 213 104 90 4 135 11 151 21 21 14 26 14 53 0 20 -11 71 -18 156 -21z"/>
<path d="M1805 3021 c-32 -14 -55 -46 -62 -85 -5 -32 -1 -40 36 -77 37 -37 45
-41 77 -36 68 11 105 70 85 136 -6 21 -17 43 -24 49 -18 15 -88 23 -112 13z"/>
<path d="M2710 3022 c-26 -8 -60 -62 -60 -97 0 -31 37 -84 66 -95 44 -17 65
-11 106 30 37 36 40 44 35 77 -11 67 -77 105 -147 85z"/>
<path d="M1984 2305 c-15 -23 -15 -29 5 -92 15 -51 31 -79 65 -115 25 -25 54
-49 66 -53 11 -3 20 -10 20 -14 0 -20 69 -35 160 -35 91 0 160 15 160 35 0 4
9 11 20 14 12 4 41 28 66 53 34 36 50 64 65 115 20 63 20 69 5 92 l-16 25
-300 0 -300 0 -16 -25z m596 -2 c0 -9 -12 -30 -27 -45 l-27 -28 -217 0 -218 0
-26 27 c-14 15 -25 36 -25 45 0 17 19 18 270 18 247 0 270 -1 270 -17z"/>
<path d="M1590 1389 c-86 -11 -330 -95 -344 -118 -3 -5 -17 -12 -31 -15 -60
-15 -253 -167 -347 -273 -60 -69 -158 -216 -158 -237 0 -16 196 -216 261 -268
19 -15 48 -37 64 -51 44 -34 180 -127 188 -127 3 0 26 -13 50 -30 25 -17 48
-30 52 -30 3 0 43 -17 88 -39 108 -51 202 -91 215 -91 5 0 54 -14 108 -30 322
-100 806 -100 1128 0 54 16 103 30 108 30 13 0 107 40 215 91 45 22 85 39 88
39 4 0 27 14 52 30 24 17 47 30 50 30 8 0 144 93 188 127 17 14 45 36 64 51
59 47 261 251 261 265 0 15 -85 154 -109 179 -9 9 -36 41 -61 70 -177 211
-493 378 -763 403 l-72 7 -1 -64 c-1 -37 -8 -79 -18 -99 -31 -64 -157 -177
-216 -193 -14 -4 -34 -11 -45 -16 -89 -38 -132 -45 -295 -45 -161 0 -168 1
-266 34 -128 42 -213 102 -272 191 -38 57 -42 68 -42 126 l0 64 -37 -1 c-21
-1 -67 -5 -103 -10z m1106 -529 c65 -22 111 -60 152 -125 47 -74 33 -212 -32
-325 -49 -83 -155 -150 -191 -120 -21 17 -19 31 10 85 27 52 21 83 -21 106
-37 20 -66 1 -79 -52 -8 -33 -16 -45 -32 -47 -18 -3 -24 5 -36 44 -19 66 -41
78 -72 40 -30 -38 -34 -67 -21 -182 9 -84 8 -96 -7 -112 -26 -26 -50 -4 -61
54 -22 124 -48 204 -74 225 -37 28 -63 21 -87 -25 -30 -58 -42 -58 -83 1 -12
17 -32 35 -43 38 -28 9 -59 -21 -59 -58 0 -36 34 -94 61 -102 25 -8 40 -37 29
-55 -20 -33 -142 -2 -215 54 -17 14 -49 50 -70 80 -35 51 -39 63 -39 119 0 55
5 72 42 137 48 87 145 186 214 220 65 32 78 24 78 -49 0 -75 4 -86 47 -112 32
-20 36 -21 51 -5 12 11 19 40 22 88 3 41 10 73 17 75 6 2 23 -8 37 -23 l25
-28 11 28 c7 20 16 27 33 24 19 -3 23 -10 27 -66 5 -66 16 -82 57 -82 65 0 97
37 94 112 -1 35 3 50 16 58 25 15 125 5 199 -20z"/>
</g>
</svg>
