<?xml version="1.0" encoding="UTF-8" standalone="no"?>
<!-- Created with Inkscape (http://www.inkscape.org/) -->

<svg
   width="1024"
   height="512"
   viewBox="0 0 270.93333 135.46667"
   version="1.1"
   id="svg5"
   sodipodi:docname="bulk-update-with-spring-data-mongodb.svg"
   inkscape:version="1.1 (c68e22c387, 2021-05-23)"
   xmlns:inkscape="http://www.inkscape.org/namespaces/inkscape"
   xmlns:sodipodi="http://sodipodi.sourceforge.net/DTD/sodipodi-0.dtd"
   xmlns="http://www.w3.org/2000/svg"
   xmlns:svg="http://www.w3.org/2000/svg">
  <sodipodi:namedview
     id="namedview7"
     pagecolor="#ffffff"
     bordercolor="#666666"
     borderopacity="1.0"
     inkscape:pageshadow="2"
     inkscape:pageopacity="0.0"
     inkscape:pagecheckerboard="0"
     inkscape:document-units="px"
     showgrid="false"
     showguides="true"
     inkscape:guide-bbox="true"
     inkscape:zoom="2.56"
     inkscape:cx="451.36719"
     inkscape:cy="210.15625"
     inkscape:window-width="3840"
     inkscape:window-height="2050"
     inkscape:window-x="2228"
     inkscape:window-y="-12"
     inkscape:window-maximized="1"
     inkscape:current-layer="layer1">
    <sodipodi:guide
       position="137.0459,0.074413563"
       orientation="0,-1"
       id="guide13143" />
    <sodipodi:guide
       position="271.40463,80.482943"
       orientation="1,0"
       id="guide13145" />
    <sodipodi:guide
       position="177.45687,25.499219"
       orientation="1,0"
       id="guide13249" />
    <sodipodi:guide
       position="132.80843,54.644727"
       orientation="0,-1"
       id="guide13251" />
    <sodipodi:guide
       position="224.37907,19.711458"
       orientation="1,0"
       id="guide13253" />
    <sodipodi:guide
       position="13.022461,23.432161"
       orientation="1,0"
       id="guide91484" />
    <sodipodi:guide
       position="258.58887,75.522005"
       orientation="1,0"
       id="guide91486" />
    <sodipodi:guide
       position="130.63802,13.30358"
       orientation="0,-1"
       id="guide91488" />
    <sodipodi:guide
       position="177.45687,135.25996"
       orientation="0,-1"
       id="guide91490" />
    <sodipodi:guide
       position="147.58789,122.75427"
       orientation="0,-1"
       id="guide91492" />
  </sodipodi:namedview>
  <defs
     id="defs2" />
  <g
     inkscape:label="Layer 1"
     inkscape:groupmode="layer"
     id="layer1"
     style="display:inline">
    <text
       xml:space="preserve"
       style="font-style:normal;font-variant:normal;font-weight:normal;font-stretch:normal;font-size:16.93330013px;line-height:1.25;font-family:Comfortaa;-inkscape-font-specification:'Comfortaa, @wght=700';font-variant-ligatures:normal;font-variant-caps:normal;font-variant-numeric:normal;font-variant-east-asian:normal;font-variation-settings:'wght' 700;white-space:pre;inline-size:267.435;fill:#000000;fill-opacity:1;stroke:none;stroke-width:0.348627"
       x="8.760766"
       y="21.401859"
       id="text2436"
       transform="translate(3.7455079,13.634312)"><tspan
         x="8.760766"
         y="21.401859"
         id="tspan7927">Bulk Update 
</tspan><tspan
         x="8.760766"
         y="42.568485"
         id="tspan7929">With Spring Data MongoDB </tspan><tspan
         x="8.760766"
         y="63.735109"
         id="tspan7931">Reactive</tspan></text>
    <g
       id="g13124"
       transform="matrix(1.923439,0,0,1.923439,177.96528,78.424593)">
      <path
         d="M 23.693,10.7058 18.963,2.5214 C 18.5536,1.8108 17.5464,1.2272 16.7228,1.2272 H 7.2725 c -0.819,0 -1.8308,0.5836 -2.2402,1.2942 L 0.307,10.7058 c -0.4095,0.7106 -0.4095,1.873 0,2.5837 l 4.7252,8.189 c 0.4094,0.7107 1.4166,1.2943 2.2402,1.2943 h 9.455 c 0.819,0 1.826,-0.5836 2.2402,-1.2942 l 4.7252,-8.189 c 0.4095,-0.7107 0.4095,-1.8732 0,-2.5838 z M 10.9763,5.7547 c 0,-0.5365 0.4377,-0.9742 0.9742,-0.9742 0.5365,0 0.9742,0.4377 0.9742,0.9742 v 5.8217 c 0,0.5366 -0.4377,0.9742 -0.9742,0.9742 -0.5365,0 -0.9742,-0.4376 -0.9742,-0.9742 z m 0.9742,12.4294 c -3.6427,0 -6.6077,-2.965 -6.6077,-6.6077 0.0047,-2.0896 0.993,-4.0521 2.6685,-5.304 A 0.8657,0.8657 0 0 1 9.2255,6.4512 0.8657,0.8657 0 0 1 9.0467,7.6655 c -2.1602,1.6048 -2.612,4.6592 -1.0072,6.8194 1.6049,2.1603 4.6593,2.612 6.8195,1.0072 1.2378,-0.9177 1.9673,-2.372 1.9673,-3.9157 A 4.8972,4.8972 0 0 0 14.8402,7.6514 C 14.4542,7.369 14.3742,6.823 14.6566,6.4371 c 0.2824,-0.386 0.8283,-0.466 1.2143,-0.1835 1.6895,1.2471 2.6826,3.2238 2.6873,5.3228 0,3.6474 -2.965,6.6077 -6.6077,6.6077 z"
         id="path836" />
      <path
         style="fill:#6db33f;fill-opacity:1;stroke:#6db33f;stroke-width:0.0151181;stroke-miterlimit:4;stroke-dasharray:none;stroke-opacity:1"
         d="M 6.9375,22.735359 C 6.2337749,22.610558 5.4815581,22.137946 5.1132133,21.589175 5.0499991,21.494996 0.31081039,13.284069 0.25104504,13.165179 0.1985188,13.060688 0.13362721,12.876143 0.0932828,12.716518 -0.06207084,12.101852 -0.00168753,11.364929 0.24637128,10.848214 0.31298038,10.709465 5.0177696,2.5530479 5.1132948,2.4107143 5.4964108,1.8398666 6.3092991,1.3460024 7.0189871,1.2529251 c 0.089818,-0.01178 1.3423014,-0.01453 5.0546739,-0.011099 l 4.935268,0.00456 0.147321,0.035289 c 0.401625,0.096204 0.768396,0.2658722 1.118304,0.5173267 0.196976,0.1415536 0.4915,0.4389251 0.605855,0.6117124 0.124941,0.1887824 4.794994,8.2745008 4.873231,8.4374998 0.312238,0.650516 0.317469,1.613559 0.01237,2.276786 -0.05938,0.129072 -4.798473,8.345772 -4.887018,8.473169 -0.09444,0.135877 -0.236166,0.296214 -0.354986,0.4016 -0.410566,0.364146 -0.860866,0.598675 -1.391617,0.724793 l -0.123459,0.02934 -4.96875,0.0026 c -4.7045532,0.0025 -4.9758717,0.0013 -5.102679,-0.02115 z m 5.564732,-4.568176 c 1.817368,-0.156662 3.463006,-1.032426 4.601375,-2.448726 0.836406,-1.040614 1.316013,-2.240835 1.440397,-3.604618 0.03614,-0.396304 0.01458,-1.046054 -0.04934,-1.486607 C 18.253192,8.9629291 17.372447,7.4294478 16.061071,6.3900558 15.751073,6.1443529 15.617123,6.0850532 15.368304,6.0833662 c -0.259802,-0.00176 -0.447658,0.073604 -0.623651,0.2502019 -0.174597,0.1751971 -0.245487,0.334747 -0.256432,0.5771462 -0.0076,0.1680554 0.01168,0.274856 0.07426,0.4115622 0.06534,0.1427253 0.151475,0.2412611 0.336339,0.3847453 1.415727,1.0988272 2.11573,2.8125712 1.868408,4.5742282 -0.09916,0.706291 -0.391559,1.451244 -0.806925,2.055804 -0.316326,0.460408 -0.788101,0.932354 -1.249654,1.250104 -0.672592,0.463036 -1.442606,0.746721 -2.260741,0.832893 -0.256919,0.02706 -0.740685,0.02707 -0.985624,0 C 10.499651,16.313531 9.6527427,15.967083 8.90625,15.37363 8.7185045,15.224373 8.3105258,14.816239 8.1578798,14.624973 8.0194728,14.451549 7.795449,14.117702 7.6905508,13.928545 7.4071412,13.417515 7.2100714,12.818578 7.1242919,12.207589 7.0953595,12.00151 7.0832338,11.391122 7.1036008,11.166023 7.1920662,10.188285 7.5541746,9.2891669 8.1711765,8.5152228 8.3278754,8.3186654 8.7178987,7.9349877 8.9410989,7.7578268 9.1663619,7.5790284 9.2411208,7.4992582 9.3073838,7.3669886 9.3768608,7.2283033 9.4005838,7.1226759 9.3993317,6.9575893 9.3984773,6.8449043 9.3913738,6.7956206 9.3635808,6.7095391 9.2780573,6.4446522 9.0835811,6.2412809 8.8224315,6.1436385 8.7502184,6.1166384 8.6998807,6.1086315 8.5709905,6.1036433 8.3220956,6.0940109 8.1686728,6.1435112 7.9620536,6.3001102 6.8909341,7.1119237 6.0810459,8.2530632 5.6609318,9.5424107 5.4614137,10.15474 5.3599392,10.752768 5.3416417,11.424107 c -0.06142,2.253539 1.0546191,4.397489 2.9418404,5.651375 0.3059248,0.203259 0.4738148,0.299862 0.7834822,0.450809 0.8177219,0.398598 1.6157257,0.60028 2.6116067,0.660038 0.127673,0.0077 0.654841,-0.0046 0.823661,-0.01915 z m -0.350998,-5.631845 c 0.133179,-0.0264 0.318667,-0.117266 0.43357,-0.212388 0.158125,-0.130904 0.283523,-0.343299 0.325217,-0.550842 0.0194,-0.09659 0.02112,-0.401633 0.01778,-3.1538044 l -0.0037,-3.046875 -0.03145,-0.09375 C 12.796225,5.1902862 12.621858,4.9898898 12.361607,4.8673592 11.884816,4.6428778 11.309805,4.8431602 11.076918,5.3148296 c -0.109846,0.2224733 -0.101076,-0.068239 -0.101076,3.350349 0,3.4139814 -0.0085,3.1261324 0.09921,3.3482144 0.125727,0.259157 0.383223,0.460333 0.66866,0.522409 0.11206,0.02437 0.283236,0.02418 0.40752,-4.63e-4 z"
         id="path1360" />
    </g>
    <g
       id="g13141"
       transform="matrix(1.3015801,0,0,1.3015801,222.95536,80.777687)">
      <path
         d="m 15.9,0.087 0.854,1.604 c 0.192,0.296 0.4,0.558 0.645,0.802 0.715,0.715 1.394,1.464 2.004,2.266 1.447,1.9 2.423,4.01 3.12,6.292 0.418,1.394 0.645,2.824 0.662,4.27 0.07,4.323 -1.412,8.035 -4.4,11.12 -0.488,0.488 -1.01,0.94 -1.57,1.342 -0.296,0 -0.436,-0.227 -0.558,-0.436 -0.227,-0.383 -0.366,-0.82 -0.436,-1.255 -0.105,-0.523 -0.174,-1.046 -0.14,-1.586 V 24.262 C 16.057,24.21 15.796,0.21 15.9,0.087 Z"
         fill="#599636"
         id="path13126" />
      <path
         d="m 15.9,0.034 c -0.035,-0.07 -0.07,-0.017 -0.105,0.017 0.017,0.35 -0.105,0.662 -0.296,0.96 -0.21,0.296 -0.488,0.523 -0.767,0.767 -1.55,1.342 -2.77,2.963 -3.747,4.776 -1.3,2.44 -1.97,5.055 -2.16,7.808 -0.087,0.993 0.314,4.497 0.627,5.508 0.854,2.684 2.388,4.933 4.375,6.885 0.488,0.47 1.01,0.906 1.55,1.325 0.157,0 0.174,-0.14 0.21,-0.244 a 4.78,4.78 0 0 0 0.157,-0.68 l 0.35,-2.614 z"
         fill="#6cac48"
         id="path13128" />
      <path
         d="m 16.754,28.845 c 0.035,-0.4 0.227,-0.732 0.436,-1.063 -0.21,-0.087 -0.366,-0.26 -0.488,-0.453 -0.105,-0.174 -0.192,-0.383 -0.26,-0.575 -0.244,-0.732 -0.296,-1.5 -0.366,-2.248 v -0.453 c -0.087,0.07 -0.105,0.662 -0.105,0.75 a 17.37,17.37 0 0 1 -0.314,2.353 c -0.052,0.314 -0.087,0.627 -0.28,0.906 0,0.035 0,0.07 0.017,0.122 0.314,0.924 0.4,1.865 0.453,2.824 v 0.35 c 0,0.418 -0.017,0.33 0.33,0.47 0.14,0.052 0.296,0.07 0.436,0.174 0.105,0 0.122,-0.087 0.122,-0.157 L 16.683,31.27 v -1.604 c -0.017,-0.28 0.035,-0.558 0.07,-0.82 z"
         fill="#c2bfbf"
         id="path13130" />
    </g>
    <text
       xml:space="preserve"
       style="font-style:normal;font-variant:normal;font-weight:normal;font-stretch:normal;font-size:5.64444px;line-height:1.25;font-family:Algerian;-inkscape-font-specification:'Algerian, Normal';font-variant-ligatures:normal;font-variant-caps:normal;font-variant-numeric:normal;font-variant-east-asian:normal;fill:#000000;fill-opacity:1;stroke:none;stroke-width:0.264583"
       x="13.138217"
       y="121.65873"
       id="text93160"><tspan
         sodipodi:role="line"
         id="tspan93158"
         style="font-style:normal;font-variant:normal;font-weight:normal;font-stretch:normal;font-size:5.64444px;font-family:Algerian;-inkscape-font-specification:'Algerian, Normal';font-variant-ligatures:normal;font-variant-caps:normal;font-variant-numeric:normal;font-variant-east-asian:normal;stroke-width:0.264583"
         x="13.138217"
         y="121.65873">Moncef AOUDIA</tspan></text>
  </g>
</svg>
