<?xml version="1.0" encoding="UTF-8" standalone="no"?> <svg version="1.1" id="Layer_1" x="0px" y="0px" viewBox="0 0 115.19 123.38" style="enable-background:new 0 0 115.19 123.38" xml:space="preserve" sodipodi:docname="image-not-found.dca04314ac73570dbf81cc2f2e91232fe62e4b86891cd3ecf3167002037b85b4.svg" inkscape:version="1.1 (c68e22c387, 2021-05-23)" xmlns:inkscape="http://www.inkscape.org/namespaces/inkscape" xmlns:sodipodi="http://sodipodi.sourceforge.net/DTD/sodipodi-0.dtd" xmlns="http://www.w3.org/2000/svg" xmlns:svg="http://www.w3.org/2000/svg"><defs id="defs5901" /><sodipodi:namedview id="namedview5899" pagecolor="#ffffff" bordercolor="#666666" borderopacity="1.0" inkscape:pageshadow="2" inkscape:pageopacity="0.0" inkscape:pagecheckerboard="0" showgrid="false" inkscape:zoom="8" inkscape:cx="16.9375" inkscape:cy="87.375" inkscape:window-width="3840" inkscape:window-height="2050" inkscape:window-x="2228" inkscape:window-y="-12" inkscape:window-maximized="1" inkscape:current-layer="Layer_1" /><style type="text/css" id="style5892">.st0{fill-rule:evenodd;clip-rule:evenodd;stroke:#000000;stroke-width:0.5;stroke-miterlimit:2.6131;}</style><g id="g5896"><path class="st0" d="M93.13,79.5c12.05,0,21.82,9.77,21.82,21.82c0,12.05-9.77,21.82-21.82,21.82c-12.05,0-21.82-9.77-21.82-21.82 C71.31,89.27,81.08,79.5,93.13,79.5L93.13,79.5z M8.08,0.25h95.28c2.17,0,4.11,0.89,5.53,2.3c1.42,1.42,2.3,3.39,2.3,5.53v70.01 c-2.46-1.91-5.24-3.44-8.25-4.48V9.98c0-0.43-0.16-0.79-0.46-1.05c-0.26-0.26-0.66-0.46-1.05-0.46H9.94 c-0.43,0-0.79,0.16-1.05,0.46C8.63,9.19,8.43,9.58,8.43,9.98v70.02h0.03l31.97-30.61c1.28-1.18,3.29-1.05,4.44,0.23 c0.03,0.03,0.03,0.07,0.07,0.07l26.88,31.8c-4.73,5.18-7.62,12.08-7.62,19.65c0,3.29,0.55,6.45,1.55,9.4H8.08 c-2.17,0-4.11-0.89-5.53-2.3s-2.3-3.39-2.3-5.53V8.08c0-2.17,0.89-4.11,2.3-5.53S5.94,0.25,8.08,0.25L8.08,0.25z M73.98,79.35 l3.71-22.79c0.3-1.71,1.91-2.9,3.62-2.6c0.66,0.1,1.25,0.43,1.71,0.86l17.1,17.97c-2.18-0.52-4.44-0.79-6.78-0.79 C85.91,71.99,79.13,74.77,73.98,79.35L73.98,79.35z M81.98,18.19c3.13,0,5.99,1.28,8.03,3.32c2.07,2.07,3.32,4.9,3.32,8.03 c0,3.13-1.28,5.99-3.32,8.03c-2.07,2.07-4.9,3.32-8.03,3.32c-3.13,0-5.99-1.28-8.03-3.32c-2.07-2.07-3.32-4.9-3.32-8.03 c0-3.13,1.28-5.99,3.32-8.03C76.02,19.44,78.86,18.19,81.98,18.19L81.98,18.19z M85.82,88.05l19.96,21.6 c1.58-2.39,2.5-5.25,2.5-8.33c0-8.36-6.78-15.14-15.14-15.14C90.48,86.17,87.99,86.85,85.82,88.05L85.82,88.05z M100.44,114.58 l-19.96-21.6c-1.58,2.39-2.5,5.25-2.5,8.33c0,8.36,6.78,15.14,15.14,15.14C95.78,116.46,98.27,115.78,100.44,114.58L100.44,114.58z" id="path5894" /></g><path style="fill:#444444;fill-opacity:1;stroke:#444444;stroke-width:0.125;stroke-opacity:1" d="M 6.1875,110.49211 C 4.8816979,110.15225 3.4492292,109.32901 2.5,108.37293 1.5039112,107.36964 0.94196525,106.48652 0.45990176,105.16682 L 0.125,104.25 0.09277877,55.75 C 0.06113547,8.1199221 0.0649038,7.2328112 0.30287055,6.2916899 0.76752516,4.4540532 1.749488,2.9292279 3.2040519,1.7866367 4.15786,1.0374001 4.9955981,0.63096576 6.2387454,0.31433465 7.2215875,0.06400352 7.5167434,0.06251296 55.676245,0.06467045 c 53.860085,0.0024129 49.321055,-0.07529546 51.213105,0.87676997 2.52916,1.27265308 4.12559,3.60148228 4.4271,6.45811598 0.0868,0.822344 0.1177,12.7087936 0.0939,36.1354186 l -0.0354,34.909976 -1,-0.728124 c -1.98877,-1.44807 -4.52879,-2.832702 -6.62953,-3.613926 l -0.93297,-0.346955 -7.5e-4,-31.815472 c -5e-4,-21.419942 -0.0427,-31.9667778 -0.12931,-32.2785383 -0.0707,-0.2546853 -0.27488,-0.5781228 -0.45366,-0.71875 L 101.90378,8.6875 H 55.6875 9.4712146 L 9.1461629,8.9431857 C 8.9673845,9.0838129 8.7632374,9.4072504 8.6925027,9.6619357 8.5204994,10.281246 8.510876,79.4375 8.6827931,79.4375 c 0.066161,0 7.2391859,-6.820313 15.9400539,-15.15625 11.09154,-10.626341 16.010064,-15.25899 16.45648,-15.5 0.47526,-0.256581 0.811685,-0.34375 1.326694,-0.34375 1.07409,0 1.626623,0.226622 2.429173,0.996331 0.396363,0.380143 6.678212,7.744945 13.959665,16.366228 l 13.239003,15.67506 -0.99448,1.19994 C 68.095296,86.227399 65.889339,90.811 65.01158,95.1998 c -0.496578,2.482897 -0.610545,3.899061 -0.541088,6.72358 0.07145,2.90568 0.335018,4.72219 1.04182,7.18037 0.233854,0.81331 0.425188,1.50237 0.425188,1.53125 0,0.0289 -13.289063,0.0488 -29.53125,0.0443 -25.199414,-0.007 -29.632097,-0.0345 -30.21875,-0.18716 z" id="path6657" /><path style="fill:#444444;fill-opacity:1;stroke:#444444;stroke-width:0.125;stroke-opacity:1" d="m 91.0625,123.23258 c -0.171875,-0.0252 -0.734375,-0.10645 -1.25,-0.18049 -5.87671,-0.84384 -11.267818,-4.23039 -14.830745,-9.31629 -0.848904,-1.21176 -2.272679,-4.09594 -2.771589,-5.61447 -1.460302,-4.44473 -1.393633,-9.564182 0.18356,-14.09534 2.184019,-6.274525 7.266708,-11.315576 13.617753,-13.506192 10.422497,-3.594952 21.877901,1.134167 26.796461,11.062344 1.34955,2.724075 2.01601,5.14325 2.24297,8.141698 0.25574,3.37861 -0.27082,6.71508 -1.55643,9.86212 -3.00472,7.35524 -9.6608,12.49576 -17.537574,13.54435 -1.197906,0.15947 -4.092667,0.21996 -4.894406,0.10227 z m 4.838726,-7.2454 c 1.651311,-0.29102 4.248494,-1.25662 4.138334,-1.53858 -0.0218,-0.0557 -4.422405,-4.84149 -9.779216,-10.63512 -9.021679,-9.757334 -9.752587,-10.516521 -9.915053,-10.298669 -0.323396,0.433644 -1.14117,2.225887 -1.449154,3.175984 -0.443165,1.367113 -0.708637,3.100628 -0.708637,4.627355 0,3.87305 1.431754,7.46652 4.087736,10.25957 3.535275,3.71772 8.477033,5.31691 13.62599,4.40946 z M 106.6323,107.75 c 1.57595,-3.28482 1.8721,-7.23006 0.81034,-10.79523 -1.56347,-5.249833 -6.1987,-9.370597 -11.63014,-10.3393 -1.403955,-0.250396 -4.138904,-0.245863 -5.469023,0.0091 -1.557427,0.298495 -4.155977,1.240302 -4.155977,1.506276 0,0.03526 4.397186,4.822575 9.771523,10.638489 9.098087,9.845625 9.783997,10.558245 9.952527,10.340045 0.0996,-0.12889 0.4239,-0.74059 0.72075,-1.35934 z" id="path6809" /><path style="fill:#444444;fill-opacity:1;stroke:#444444;stroke-width:0.125;stroke-opacity:1" d="m 73.965575,79.329851 c -0.118153,-0.07302 0.286098,-2.800182 1.723569,-11.627539 2.005396,-12.314925 1.992152,-12.253942 2.83045,-13.03231 1.030386,-0.956723 2.450566,-1.176645 3.688188,-0.571132 0.584748,0.28609 1.820994,1.529956 8.736673,8.790528 9.373645,9.841118 9.314325,9.776826 9.161775,9.929373 -0.0705,0.07054 -0.599557,0.02165 -1.36082,-0.125764 -2.897087,-0.561017 -6.616443,-0.634632 -9.626454,-0.190531 -5.452551,0.804475 -9.985401,2.85568 -14.62149,6.616515 -0.222815,0.180749 -0.440791,0.267163 -0.531891,0.21086 z" id="path6848" /><path style="fill:#444444;fill-opacity:1;stroke:#444444;stroke-width:0.125;stroke-opacity:1" d="M 80.144968,40.939341 C 78.593009,40.658864 76.729269,39.899942 75.4375,39.022444 74.60743,38.458576 73.236028,37.106667 72.616001,36.241047 71.893565,35.232454 71.127452,33.60605 70.79491,32.375 c -0.354611,-1.312751 -0.392055,-4.066622 -0.07264,-5.342164 1.052882,-4.204507 3.849836,-7.201632 7.965226,-8.53528 0.899899,-0.291625 1.339877,-0.353308 2.875,-0.403065 1.99296,-0.0646 3.165655,0.126966 4.771329,0.779409 2.465255,1.001723 4.760627,3.12419 5.949246,5.5011 2.87698,5.75317 0.459837,12.776607 -5.353605,15.555849 -1.548945,0.740507 -2.765414,1.023677 -4.61697,1.074742 -0.859375,0.0237 -1.834764,-0.0061 -2.167532,-0.06625 z" id="path6887" /></svg>